<svg xmlns="http://www.w3.org/2000/svg" viewBox="0 0 100 100" fill="none">
  <rect width="100" height="100" rx="12" fill="#E6F4EA"/>
  <rect x="20" y="25" width="60" height="50" rx="4" fill="white" stroke="#34a853" stroke-width="2"/>
  <line x1="20" y1="40" x2="80" y2="40" stroke="#34a853" stroke-width="2"/>
  <line x1="36" y1="18" x2="36" y2="32" stroke="#34a853" stroke-width="2.5" stroke-linecap="round"/>
  <line x1="64" y1="18" x2="64" y2="32" stroke="#34a853" stroke-width="2.5" stroke-linecap="round"/>
  <rect x="30" y="46" width="8" height="6" rx="1" fill="#34a853" opacity="0.3"/>
  <rect x="42" y="46" width="8" height="6" rx="1" fill="#34a853" opacity="0.3"/>
  <rect x="54" y="46" width="8" height="6" rx="1" fill="#34a853" opacity="0.3"/>
  <rect x="30" y="56" width="8" height="6" rx="1" fill="#34a853" opacity="0.3"/>
  <rect x="42" y="56" width="8" height="6" rx="1" fill="#34a853"/>
  <rect x="54" y="56" width="8" height="6" rx="1" fill="#34a853" opacity="0.3"/>
  <rect x="30" y="66" width="8" height="6" rx="1" fill="#34a853" opacity="0.3"/>
  <rect x="42" y="66" width="8" height="6" rx="1" fill="#34a853" opacity="0.3"/>
</svg>
