<svg xmlns="http://www.w3.org/2000/svg" viewBox="0 0 100 100" fill="none">
  <rect width="100" height="100" rx="12" fill="#E8F0FE"/>
  <circle cx="40" cy="40" r="14" fill="#FBBF24"/>
  <g stroke="#FBBF24" stroke-width="2" stroke-linecap="round">
    <line x1="40" y1="20" x2="40" y2="24"/>
    <line x1="40" y1="56" x2="40" y2="60"/>
    <line x1="20" y1="40" x2="24" y2="40"/>
    <line x1="56" y1="40" x2="60" y2="40"/>
    <line x1="26" y1="26" x2="29" y2="29"/>
    <line x1="51" y1="51" x2="54" y2="54"/>
    <line x1="54" y1="26" x2="51" y2="29"/>
    <line x1="29" y1="51" x2="26" y2="54"/>
  </g>
  <path d="M48 62C42 62 38 58 38 53C38 48 42 44 48 44C49 44 50 44.2 51 44.5C52 38 57 34 63 34C70 34 76 40 76 47C76 54 70 60 63 60H48Z" fill="white" stroke="#90CAF9" stroke-width="1.5"/>
</svg>
